<?xml version="1.0" standalone="no"?>
<!DOCTYPE svg PUBLIC "-//W3C//DTD SVG 20010904//EN"
 "http://www.w3.org/TR/2001/REC-SVG-20010904/DTD/svg10.dtd">
<svg version="1.0" xmlns="http://www.w3.org/2000/svg"
 width="433.000000pt" height="270.000000pt" viewBox="0 0 433.000000 270.000000"
 preserveAspectRatio="xMidYMid meet">

<g transform="translate(0.000000,270.000000) scale(0.100000,-0.100000)"
fill="#000000" stroke="none">
<path d="M2652 2268 c-17 -17 -17 -1819 0 -1836 9 -9 208 -11 848 -10 l835 3
-830 2 c-766 3 -831 4 -842 20 -19 25 -19 1781 0 1806 11 16 76 17 842 20
l830 2 -835 3 c-640 1 -839 -1 -848 -10z"/>
<path d="M2711 2196 c-9 -10 -8 -16 4 -26 19 -16 41 1 32 24 -8 20 -21 20 -36
2z"/>
<path d="M2771 2184 c0 -11 3 -14 6 -6 3 7 2 16 -1 19 -3 4 -6 -2 -5 -13z"/>
<path d="M2791 2184 c0 -11 3 -14 6 -6 3 7 2 16 -1 19 -3 4 -6 -2 -5 -13z"/>
<path d="M2930 2179 c0 -5 5 -7 10 -4 6 3 10 8 10 11 0 2 -4 4 -10 4 -5 0 -10
-5 -10 -11z"/>
<path d="M3230 2161 c0 -6 4 -13 10 -16 6 -3 7 1 4 9 -7 18 -14 21 -14 7z"/>
<path d="M3260 2149 c0 -5 5 -7 10 -4 6 3 10 8 10 11 0 2 -4 4 -10 4 -5 0 -10
-5 -10 -11z"/>
<path d="M3290 2149 c0 -4 6 -9 13 -12 8 -3 14 0 14 7 0 7 -6 13 -14 13 -7 0
-13 -4 -13 -8z"/>
<path d="M3374 2153 c10 -10 46 -14 46 -5 0 4 -12 9 -27 10 -14 1 -23 -1 -19
-5z"/>
<path d="M3336 2138 c3 -5 10 -6 15 -3 13 9 11 12 -6 12 -8 0 -12 -4 -9 -9z"/>
<path d="M397 2092 l-27 -28 26 -27 c33 -36 52 -34 45 6 -1 5 3 6 8 3 5 -3 14
0 20 7 8 10 4 20 -17 40 l-28 27 -27 -28z"/>
<path d="M508 2061 c-2 -17 -1 -31 4 -31 4 0 8 7 8 15 0 8 5 15 10 15 6 0 10
-7 10 -15 0 -8 5 -15 10 -15 6 0 10 14 10 30 0 30 -14 41 -23 18 -4 -10 -8
-10 -15 1 -7 10 -11 5 -14 -18z"/>
<path d="M574 2065 c-7 -18 3 -35 22 -35 8 0 14 10 14 25 0 27 -27 35 -36 10z
m23 -17 c-3 -8 -6 -5 -6 6 -1 11 2 17 5 13 3 -3 4 -12 1 -19z"/>
<path d="M630 2055 c0 -14 4 -25 9 -25 5 0 7 10 3 22 -3 14 -2 19 6 14 7 -4
12 -2 12 3 0 6 -7 11 -15 11 -9 0 -15 -9 -15 -25z"/>
<path d="M670 2055 c0 -14 4 -25 9 -25 4 0 6 11 3 25 -2 14 -6 25 -8 25 -2 0
-4 -11 -4 -25z"/>
<path d="M704 2055 c-1 -14 3 -25 10 -25 6 0 12 11 12 25 1 14 -3 25 -10 25
-6 0 -12 -11 -12 -25z"/>
<path d="M744 2066 c-7 -19 3 -36 22 -36 10 0 14 8 12 22 -4 26 -26 36 -34 14z
m26 -11 c0 -8 -4 -15 -10 -15 -5 0 -10 7 -10 15 0 8 5 15 10 15 6 0 10 -7 10
-15z"/>
<path d="M795 2055 c0 -14 3 -25 8 -25 4 0 7 9 7 20 0 11 5 20 11 20 6 0 9 -9
6 -20 -3 -11 -1 -20 5 -20 19 0 3 45 -17 48 -15 2 -20 -3 -20 -23z"/>
<path d="M2690 1945 l0 -46 145 2 c143 1 145 1 151 24 15 59 12 60 -149 63
l-147 3 0 -46z m57 9 c8 -21 -13 -42 -28 -27 -13 13 -5 43 11 43 6 0 13 -7 17
-16z m79 -4 c13 0 24 -4 24 -10 0 -5 -18 -10 -40 -10 -30 0 -40 4 -40 16 0 11
5 14 16 10 9 -3 27 -6 40 -6z"/>
<path d="M2720 1951 c0 -5 5 -13 10 -16 6 -3 10 -2 10 4 0 5 -4 13 -10 16 -5
3 -10 2 -10 -4z"/>
<path d="M3360 1951 c0 -5 9 -12 20 -16 11 -3 28 -17 38 -30 11 -13 22 -22 25
-18 11 10 -13 42 -43 58 -34 17 -40 18 -40 6z"/>
<path d="M393 1863 c-20 -8 -15 -40 7 -46 11 -3 20 -11 20 -17 0 -8 -9 -10
-27 -5 -21 5 -25 4 -17 -5 16 -17 58 -8 62 12 2 12 -5 19 -22 24 -14 3 -26 11
-26 16 0 6 11 7 27 3 23 -5 25 -4 14 9 -14 17 -18 18 -38 9z"/>
<path d="M455 1860 c3 -5 8 -10 11 -10 2 0 4 5 4 10 0 6 -5 10 -11 10 -5 0 -7
-4 -4 -10z"/>
<path d="M673 1825 c0 -27 2 -38 4 -22 2 15 2 37 0 50 -2 12 -4 0 -4 -28z"/>
<path d="M462 1810 c0 -19 2 -27 5 -17 2 9 2 25 0 35 -3 9 -5 1 -5 -18z"/>
<path d="M486 1825 c-8 -23 4 -45 25 -45 10 0 19 -5 19 -11 0 -6 -9 -9 -20 -6
-11 3 -20 1 -20 -4 0 -5 11 -9 24 -9 26 0 36 16 36 61 0 25 -4 29 -29 29 -16
0 -31 -6 -35 -15z m44 -15 c0 -11 -7 -20 -15 -20 -8 0 -15 9 -15 20 0 11 7 20
15 20 8 0 15 -9 15 -20z"/>
<path d="M560 1810 c0 -16 5 -30 10 -30 6 0 10 12 10 26 0 32 22 27 31 -7 6
-21 7 -21 8 9 1 29 -2 32 -29 32 -27 0 -30 -3 -30 -30z"/>
<path d="M700 1811 c0 -17 5 -31 10 -31 6 0 10 11 10 25 0 14 5 25 10 25 6 0
10 -11 10 -25 0 -14 5 -25 11 -25 6 0 9 12 7 28 -2 21 -9 28 -30 30 -25 3 -28
0 -28 -27z"/>
<path d="M3506 1812 c-7 -12 12 -38 21 -28 4 5 2 11 -5 13 -6 3 -10 9 -6 14 3
5 3 9 0 9 -3 0 -7 -4 -10 -8z"/>
<path d="M3657 1813 c-12 -11 -8 -30 7 -30 7 0 13 6 12 13 -3 18 -11 25 -19
17z"/>
<path d="M3620 1790 c0 -5 5 -10 10 -10 6 0 10 5 10 10 0 6 -4 10 -10 10 -5 0
-10 -4 -10 -10z"/>
<path d="M3315 1620 c4 -6 11 -8 16 -5 14 9 11 15 -7 15 -8 0 -12 -5 -9 -10z"/>
<path d="M3458 1618 c-9 -5 -6 -7 9 -5 12 2 25 6 28 8 8 9 -23 6 -37 -3z"/>
<path d="M3535 1620 c-3 -6 1 -7 9 -4 18 7 21 14 7 14 -6 0 -13 -4 -16 -10z"/>
<path d="M3254 1366 c-10 -26 4 -48 28 -44 17 2 23 10 23 28 0 18 -6 26 -23
28 -13 2 -25 -3 -28 -12z m46 -15 c0 -6 -9 -9 -20 -8 -11 1 -20 5 -20 9 0 4 9
8 20 8 11 0 20 -4 20 -9z"/>
<path d="M486 1192 c-3 -5 1 -9 9 -9 8 0 12 4 9 9 -3 4 -7 8 -9 8 -2 0 -6 -4
-9 -8z"/>
<path d="M400 1180 c0 -5 5 -10 11 -10 5 0 7 5 4 10 -3 6 -8 10 -11 10 -2 0
-4 -4 -4 -10z"/>
<path d="M3240 975 c-7 -9 -8 -15 -2 -15 5 0 9 -6 8 -12 -1 -14 6 -18 27 -18
8 0 13 9 11 23 -1 12 -3 25 -3 30 -2 12 -28 8 -41 -8z"/>
<path d="M382 881 c-9 -5 -12 -25 -10 -62 l3 -54 500 -1 c275 0 473 2 440 4
l-60 4 40 13 c22 7 32 13 22 14 -18 1 -18 2 -1 19 17 16 16 17 -22 21 -39 4
-39 4 21 16 l60 12 -60 4 c-54 2 -50 3 35 9 52 3 -141 7 -430 8 -289 1 -531
-2 -538 -7z m693 -42 c-4 -6 0 -9 11 -7 11 2 20 -4 22 -14 4 -19 0 -20 -80
-22 -33 -1 -38 2 -38 22 0 20 5 22 35 20 19 -1 37 1 41 5 11 11 16 8 9 -4z
m93 -18 c3 -9 10 -20 16 -24 7 -5 4 -6 -7 -3 -10 3 -27 6 -38 6 -13 0 -19 7
-19 24 0 20 4 23 21 19 11 -3 23 -13 27 -22z m119 -17 c-3 -3 -12 -4 -19 -1
-8 3 -5 6 6 6 11 1 17 -2 13 -5z"/>
<path d="M3245 856 c-27 -20 -15 -51 20 -51 23 0 31 5 33 22 4 29 -28 47 -53
29z"/>
<path d="M3255 600 c-8 -13 13 -50 28 -49 8 0 9 2 1 5 -7 3 -10 13 -7 23 5 21
-12 37 -22 21z"/>
</g>
</svg>
