<?xml version="1.0" standalone="no"?>
<!DOCTYPE svg PUBLIC "-//W3C//DTD SVG 20010904//EN"
 "http://www.w3.org/TR/2001/REC-SVG-20010904/DTD/svg10.dtd">
<svg version="1.0" xmlns="http://www.w3.org/2000/svg"
 width="431.000000pt" height="270.000000pt" viewBox="0 0 431.000000 270.000000"
 preserveAspectRatio="xMidYMid meet">

<g transform="translate(0.000000,270.000000) scale(0.100000,-0.100000)"
fill="#000000" stroke="none">
<path d="M332 2540 c0 -19 2 -27 5 -17 2 9 2 25 0 35 -3 9 -5 1 -5 -18z"/>
<path d="M350 2568 c0 -15 20 -58 28 -58 4 0 13 15 19 33 12 31 12 31 -4 9
l-16 -24 -13 24 c-7 13 -13 20 -14 16z"/>
<path d="M2385 2553 c119 -4 151 -13 80 -24 -110 -17 -175 -36 -175 -51 0 -7
-5 -6 -14 1 -10 8 -16 8 -25 -3 -7 -8 -20 -13 -29 -12 -9 2 -22 -4 -29 -13
-11 -14 -12 -14 -13 3 0 12 -5 16 -16 12 -9 -3 -18 -6 -20 -6 -2 0 -4 -4 -4
-10 0 -5 6 -7 13 -5 7 3 20 -7 30 -22 10 -16 17 -21 16 -13 -3 31 2 40 21 40
10 0 25 -6 32 -14 11 -11 16 -11 34 1 21 13 54 9 54 -8 0 -5 -8 -9 -17 -10
-14 0 -15 -2 -3 -6 8 -3 19 -11 23 -17 4 -6 7 10 5 37 -3 39 0 47 14 47 12 0
18 -8 18 -21 0 -14 5 -19 14 -16 21 8 36 -13 36 -50 0 -23 -5 -33 -15 -33 -10
0 -15 10 -15 30 0 17 -4 30 -10 30 -5 0 -10 -13 -10 -30 0 -20 -5 -30 -15 -30
-8 0 -15 6 -15 13 0 9 -3 8 -9 -2 -6 -9 -20 -12 -40 -9 -18 3 -34 2 -36 -2 -8
-13 -74 2 -78 19 -4 15 -5 15 -6 0 -1 -17 -48 -32 -56 -19 -2 4 -16 5 -30 2
-15 -2 -25 0 -25 8 0 7 -6 5 -16 -5 -20 -19 -24 -16 -34 27 l-8 33 -1 -32 c-1
-24 -6 -33 -18 -34 -28 -1 -87 0 -103 3 -38 5 -140 -16 -156 -33 -9 -10 -22
-15 -29 -13 -7 3 -37 -2 -66 -10 -29 -9 -65 -16 -81 -16 -15 0 -28 -4 -28 -8
0 -8 -78 -29 -192 -52 -32 -6 -58 -15 -58 -19 0 -4 -35 -15 -77 -25 -43 -10
-83 -20 -89 -21 -15 -4 -24 -134 -24 -346 0 -163 2 -178 21 -203 l20 -26 1504
0 1504 0 22 28 22 27 -7 440 c-6 431 -7 440 -27 458 -20 16 -78 17 -943 15
-506 -1 -876 -4 -821 -5z m845 -94 c0 -5 -7 -9 -15 -9 -15 0 -20 12 -9 23 8 8
24 -1 24 -14z m-721 -6 c9 -17 10 -17 16 0 4 9 16 17 26 17 18 0 18 -1 -1 -32
-11 -18 -20 -43 -20 -55 0 -14 -6 -23 -15 -23 -9 0 -15 9 -15 23 -1 12 -7 33
-15 47 -8 14 -14 28 -15 33 0 14 29 7 39 -10z m402 1 c11 -10 36 -15 73 -15
44 0 58 -4 66 -18 5 -10 6 -22 2 -26 -4 -3 -7 -12 -7 -18 0 -7 -13 -12 -30
-12 -26 0 -30 4 -33 32 -4 41 -32 34 -32 -8 0 -19 -5 -29 -15 -29 -8 0 -14 3
-14 8 1 4 1 22 0 41 -1 25 -5 32 -16 28 -8 -4 -17 -2 -21 4 -8 14 -34 -9 -34
-32 0 -24 17 -34 35 -19 9 7 15 8 20 0 10 -17 -4 -30 -35 -30 -33 0 -42 18
-38 74 2 33 5 36 32 36 16 0 37 -7 47 -16z m269 1 c0 -9 9 -15 25 -15 23 0 25
-4 25 -40 0 -29 -4 -40 -15 -40 -11 0 -15 11 -15 36 0 23 -4 33 -11 28 -6 -4
-9 -19 -5 -36 5 -24 3 -29 -11 -26 -21 4 -35 65 -22 90 12 22 29 24 29 3z
m-552 -27 c9 -9 12 -9 12 0 0 7 7 12 15 12 10 0 15 -10 15 -30 0 -16 5 -30 10
-30 6 0 10 14 10 30 0 20 5 30 15 30 11 0 15 -11 15 -40 0 -39 -1 -40 -34 -40
-22 0 -36 6 -40 17 -6 15 -8 15 -19 -1 -19 -26 -61 -17 -65 12 -2 13 -1 30 2
38 7 17 47 19 64 2z m162 2 c0 -5 -7 -10 -15 -10 -10 0 -15 -10 -15 -30 0 -20
-5 -30 -15 -30 -11 0 -15 11 -15 40 0 38 2 40 30 40 17 0 30 -4 30 -10z m334
-2 c3 -7 7 -26 11 -41 6 -27 5 -28 -32 -25 -30 2 -38 7 -38 23 0 12 9 22 25
26 25 7 25 7 -3 8 -16 1 -26 5 -22 11 9 14 55 12 59 -2z m145 -10 l8 -23 7 23
c4 12 14 22 21 22 20 0 -6 -74 -27 -78 -14 -3 -38 42 -38 69 0 18 21 8 29 -13z
m120 3 c6 -10 7 -22 3 -26 -4 -3 -7 -12 -7 -18 0 -7 -13 -12 -30 -12 -24 0
-31 5 -33 23 -2 13 -1 30 2 38 8 20 53 17 65 -5z m-1429 -152 c0 -5 -4 -9 -10
-9 -6 0 -6 -9 -2 -22 5 -13 7 -29 6 -35 -1 -7 -2 -17 -3 -23 0 -5 -5 -10 -10
-10 -6 0 -11 24 -13 53 l-3 52 -18 -53 c-24 -67 -44 -66 -69 3 -22 60 -21 55
-3 55 8 0 21 -15 28 -32 l14 -33 7 32 c5 22 14 33 29 35 27 5 47 -1 47 -13z
m110 0 c0 -5 -7 -9 -15 -9 -15 0 -20 12 -9 23 8 8 24 -1 24 -14z m370 0 c0 -5
-7 -9 -15 -9 -15 0 -20 12 -9 23 8 8 24 -1 24 -14z m55 -53 c1 -38 -2 -46 -16
-46 -20 0 -32 64 -17 94 15 28 30 5 33 -48z m45 49 c0 -8 9 -15 19 -15 15 0
20 -9 23 -40 2 -28 0 -40 -9 -40 -8 0 -13 12 -13 30 0 17 -4 30 -10 30 -5 0
-10 -13 -10 -30 0 -20 -5 -30 -15 -30 -12 0 -15 13 -15 55 0 42 3 55 15 55 8
0 15 -7 15 -15z m125 -26 l12 -34 7 32 c7 32 22 50 33 40 3 -3 -3 -29 -12 -57
-21 -63 -42 -63 -61 0 -17 56 -17 63 -2 58 6 -2 17 -20 23 -39z m95 31 c0 -5
-7 -10 -15 -10 -8 0 -15 5 -15 10 0 6 7 10 15 10 8 0 15 -4 15 -10z m280 -29
c0 -22 3 -46 6 -55 4 -11 1 -16 -10 -16 -13 0 -16 11 -16 55 0 30 5 55 10 55
6 0 10 -18 10 -39z m47 9 c3 -16 9 -30 13 -30 5 0 11 14 15 30 4 17 12 30 19
30 11 0 10 -12 -3 -55 -10 -35 -21 -55 -31 -55 -10 0 -21 20 -31 55 -14 46
-14 55 -2 55 7 0 16 -13 20 -30z m-1057 -10 c0 -5 -10 -11 -22 -11 l-23 -2 23
-4 c15 -3 22 -11 22 -29 0 -20 -5 -24 -29 -24 -30 0 -49 14 -33 24 5 3 7 17 4
31 -4 22 -1 25 27 25 17 0 31 -4 31 -10z m40 -30 c0 -29 -4 -40 -15 -40 -11 0
-15 11 -15 40 0 29 4 40 15 40 11 0 15 -11 15 -40z m85 20 c11 -35 -3 -60 -35
-60 -20 0 -31 6 -35 20 -11 35 3 60 35 60 20 0 31 -6 35 -20z m85 -20 c0 -22
-4 -40 -10 -40 -5 0 -10 14 -10 30 0 17 -4 30 -10 30 -5 0 -10 -13 -10 -30 0
-20 -5 -30 -15 -30 -11 0 -15 11 -15 40 0 39 1 40 35 40 34 0 35 -1 35 -40z
m79 23 c10 -17 10 -17 11 0 0 9 5 17 11 17 7 0 18 -8 25 -17 13 -17 13 -17 14
0 0 12 8 17 30 17 28 0 30 -2 30 -40 0 -29 -4 -40 -15 -40 -10 0 -15 11 -16
38 l-1 37 -10 -37 c-11 -43 -34 -50 -48 -15 l-9 22 0 -22 c-2 -41 -35 -28 -48
17 -8 32 -8 40 3 40 7 0 18 -8 23 -17z m441 -23 c0 -29 -4 -40 -15 -40 -11 0
-15 11 -15 40 0 29 4 40 15 40 11 0 15 -11 15 -40z m70 30 c0 -5 -10 -10 -22
-11 l-23 0 23 -9 c12 -6 22 -18 22 -30 0 -16 -7 -20 -30 -20 -34 0 -42 20 -7
21 l22 0 -22 9 c-22 9 -30 30 -16 43 10 11 53 8 53 -3z m40 -20 c0 -16 5 -30
10 -30 6 0 10 14 10 30 0 20 5 30 15 30 11 0 15 -11 15 -40 0 -39 -1 -40 -34
-40 -36 0 -46 12 -46 56 0 15 6 24 15 24 10 0 15 -10 15 -30z m124 18 c3 -7 7
-25 10 -40 6 -27 5 -28 -35 -28 -36 0 -40 2 -37 22 2 14 13 25 28 29 25 7 25
7 -3 8 -16 1 -26 5 -22 11 9 14 55 12 59 -2z m221 -28 c0 -32 -2 -35 -30 -35
-24 0 -31 5 -33 23 -6 38 5 54 35 50 25 -3 28 -7 28 -38z m65 30 c0 -5 -4 -10
-10 -10 -5 0 -10 -13 -10 -30 0 -20 -5 -30 -15 -30 -11 0 -15 11 -15 40 0 36
3 40 25 40 14 0 25 -4 25 -10z m70 0 c0 -5 -10 -11 -22 -11 l-23 -2 23 -4 c12
-2 22 -10 22 -16 0 -7 6 -1 13 13 14 27 55 39 68 19 4 -7 6 -24 5 -38 -4 -30
-37 -40 -63 -19 -13 10 -17 10 -20 1 -5 -15 -63 -18 -63 -3 0 6 10 10 23 11
l22 0 -22 9 c-13 6 -23 18 -23 30 0 16 7 20 30 20 17 0 30 -4 30 -10z m-846
-225 c23 -17 12 -39 -13 -25 -10 5 -21 6 -25 3 -3 -3 -6 0 -6 9 0 30 16 34 44
13z m67 1 c5 3 9 0 9 -7 0 -7 6 -4 14 7 14 18 15 18 22 1 5 -15 9 -16 16 -5 8
10 9 10 6 -2 -5 -17 -78 -22 -78 -6 0 6 -5 4 -10 -4 -11 -18 -13 -9 -3 16 4
11 8 13 11 6 2 -7 8 -10 13 -6z m113 -2 c8 -21 8 -24 -5 -24 -5 0 -8 4 -4 9 3
5 1 12 -5 16 -5 3 -10 -2 -10 -11 0 -10 -3 -15 -6 -11 -9 8 3 37 15 37 5 0 12
-7 15 -16z m86 -9 c0 -16 -68 -15 -74 1 -3 7 10 11 35 11 24 0 39 -5 39 -12z
m30 0 c0 -8 -4 -15 -10 -15 -5 0 -10 7 -10 15 0 8 5 15 10 15 6 0 10 -7 10
-15z m-1015 -99 c39 -17 55 -42 55 -88 0 -42 -20 -72 -59 -88 -62 -25 -131 20
-131 85 0 48 15 74 53 90 40 18 41 18 82 1z m618 -26 c39 -43 36 -83 -8 -127
-31 -31 -40 -35 -71 -30 -44 7 -63 23 -81 65 -12 30 -12 38 4 70 34 69 104 78
156 22z m562 25 c57 -28 73 -102 31 -148 -31 -33 -68 -43 -107 -27 -74 31 -78
138 -5 174 39 19 41 19 81 1z m628 -26 c38 -42 36 -82 -7 -125 -37 -37 -62
-42 -106 -19 -35 18 -50 43 -50 85 0 43 16 69 53 86 42 18 76 10 110 -27z
m-1984 -211 c1 6 8 12 16 12 9 0 12 -6 9 -15 -10 -25 -44 -19 -43 8 0 21 1 21
9 2 5 -11 9 -14 9 -7z m111 -3 c0 -17 -26 -26 -56 -19 -30 8 -26 26 7 35 30 7
49 1 49 -16z m146 15 c20 0 31 -5 31 -15 0 -18 -17 -20 -18 -2 0 10 -2 10 -6
0 -2 -7 -11 -13 -19 -13 -10 0 -12 5 -8 13 6 9 4 9 -7 1 -8 -6 -33 -12 -56
-13 -37 -2 -43 0 -43 17 0 17 6 19 48 16 26 -2 61 -3 78 -4z m330 2 c-5 -8
127 -6 151 3 7 2 15 0 18 -4 3 -5 13 -7 23 -4 12 3 19 -1 19 -9 0 -18 -88 -22
-99 -5 -6 9 -8 9 -8 0 0 -6 -13 -11 -30 -11 -16 1 -30 5 -30 10 0 4 -5 8 -11
8 -5 0 -7 -4 -4 -10 4 -6 -5 -10 -19 -10 -19 0 -26 5 -26 20 0 11 5 20 11 20
5 0 8 -4 5 -8z m294 -11 c0 -14 -6 -19 -20 -18 -11 1 -20 6 -20 12 0 5 -5 3
-10 -5 -8 -12 -10 -11 -10 8 0 18 6 22 30 22 23 0 30 -5 30 -19z m331 -10 c7
-18 6 -20 -9 -13 -9 5 -22 7 -29 5 -14 -5 -26 13 -18 27 10 17 48 4 56 -19z
m79 10 c0 -15 -7 -19 -30 -19 -19 1 -30 6 -30 16 0 8 6 12 13 9 8 -3 20 -1 28
4 19 12 19 12 19 -10z m59 9 c4 0 8 -7 8 -15 0 -20 -7 -19 -24 3 -8 9 -12 12
-9 5 4 -6 2 -14 -4 -18 -6 -3 -10 3 -10 15 0 16 4 20 16 16 9 -3 19 -6 23 -6z
m500 -6 c2 -2 12 1 22 7 16 8 19 6 19 -11 0 -17 -5 -20 -33 -17 -19 2 -40 8
-48 12 -11 7 -11 5 1 -10 14 -17 14 -18 -5 -8 -11 6 -26 9 -33 7 -7 -1 -8 0
-2 3 16 8 11 26 -6 19 -8 -3 -12 -2 -9 4 5 8 84 4 94 -6z m163 2 c44 0 55 -3
47 -12 -11 -14 -69 -16 -69 -2 0 4 -5 8 -11 8 -5 0 -8 -4 -5 -8 2 -4 -7 -9
-20 -10 -14 -1 -23 2 -19 7 3 5 0 13 -6 17 -7 4 -9 3 -5 -4 3 -6 2 -13 -4 -17
-6 -3 -10 3 -10 15 0 18 4 20 23 14 12 -4 48 -7 79 -8z m-611 -11 c1 -17 -18
-17 -25 0 -4 11 -1 15 10 13 8 -2 15 -7 15 -13z m70 7 c-9 -3 -10 -6 -2 -12 7
-3 -3 -7 -22 -7 -20 0 -34 5 -34 13 0 7 14 12 36 12 20 0 30 -3 22 -6z"/>
<path d="M3008 2413 c7 -3 16 -2 19 1 4 3 -2 6 -13 5 -11 0 -14 -3 -6 -6z"/>
<path d="M2587 2406 c-6 -15 1 -26 15 -26 4 0 8 9 8 20 0 23 -15 27 -23 6z"/>
<path d="M2110 2210 c0 -11 5 -20 10 -20 6 0 10 9 10 20 0 11 -4 20 -10 20 -5
0 -10 -9 -10 -20z"/>
<path d="M2958 2193 c7 -3 16 -2 19 1 4 3 -2 6 -13 5 -11 0 -14 -3 -6 -6z"/>
<path d="M3178 2223 c7 -3 16 -2 19 1 4 3 -2 6 -13 5 -11 0 -14 -3 -6 -6z"/>
<path d="M3178 2193 c7 -3 16 -2 19 1 4 3 -2 6 -13 5 -11 0 -14 -3 -6 -6z"/>
<path d="M3398 2193 c7 -3 16 -2 19 1 4 3 -2 6 -13 5 -11 0 -14 -3 -6 -6z"/>
<path d="M2770 1670 c0 -5 5 -10 10 -10 6 0 10 5 10 10 0 6 -4 10 -10 10 -5 0
-10 -4 -10 -10z"/>
<path d="M172 2530 c0 -14 2 -19 5 -12 2 6 2 18 0 25 -3 6 -5 1 -5 -13z"/>
<path d="M190 2541 c0 -5 5 -13 10 -16 6 -4 7 -12 4 -18 -5 -9 -4 -9 6 0 10 9
10 15 -4 28 -9 9 -16 12 -16 6z"/>
<path d="M232 2530 c0 -14 2 -19 5 -12 2 6 2 18 0 25 -3 6 -5 1 -5 -13z"/>
<path d="M262 2530 c0 -14 2 -19 5 -12 2 6 2 18 0 25 -3 6 -5 1 -5 -13z"/>
<path d="M303 2543 c4 -3 -1 -11 -10 -18 -13 -9 -13 -14 -3 -20 9 -6 11 -4 5
5 -6 10 -4 12 8 7 12 -5 17 -1 17 13 0 11 -5 20 -12 20 -6 0 -8 -3 -5 -7z"/>
<path d="M420 2530 c0 -21 26 -34 36 -18 4 6 3 8 -4 4 -6 -3 -13 -2 -17 4 -3
5 1 10 9 10 23 0 19 15 -4 17 -13 1 -20 -4 -20 -17z"/>
<path d="M470 2530 c0 -11 2 -20 4 -20 2 0 6 9 9 20 3 11 1 20 -4 20 -5 0 -9
-9 -9 -20z"/>
<path d="M510 2543 c0 -7 5 -15 10 -18 6 -4 7 -12 4 -18 -5 -8 -2 -8 7 1 11
10 10 15 -4 29 -10 10 -17 12 -17 6z"/>
<path d="M553 2537 c-3 -5 1 -16 10 -24 11 -12 16 -12 22 -2 5 7 4 10 -3 5 -6
-3 -13 -2 -17 4 -3 5 1 10 9 10 9 0 16 4 16 8 0 12 -29 11 -37 -1z"/>
<path d="M2101 2433 c0 -25 1 -26 9 -8 12 27 12 35 0 35 -5 0 -10 -12 -9 -27z"/>
<path d="M2046 2437 c3 -10 9 -15 12 -12 3 3 0 11 -7 18 -10 9 -11 8 -5 -6z"/>
<path d="M1971 2424 c0 -11 3 -14 6 -6 3 7 2 16 -1 19 -3 4 -6 -2 -5 -13z"/>
<path d="M2218 2413 c7 -3 16 -2 19 1 4 3 -2 6 -13 5 -11 0 -14 -3 -6 -6z"/>
<path d="M1920 2400 c-8 -5 -12 -12 -9 -15 4 -3 12 1 19 10 14 17 11 19 -10 5z"/>
<path d="M1967 2385 c-4 -8 -3 -16 1 -19 4 -3 9 4 9 15 2 23 -3 25 -10 4z"/>
<path d="M2095 2390 c-3 -5 -1 -10 4 -10 6 0 11 5 11 10 0 6 -2 10 -4 10 -3 0
-8 -4 -11 -10z"/>
<path d="M2265 2390 c-3 -5 -1 -10 4 -10 6 0 11 5 11 10 0 6 -2 10 -4 10 -3 0
-8 -4 -11 -10z"/>
<path d="M345 2379 c-22 -4 -62 -12 -90 -18 -218 -44 -227 -48 -187 -84 17
-15 59 -17 399 -17 355 0 381 1 396 18 24 26 21 65 -6 90 -23 21 -30 22 -248
21 -123 -1 -242 -5 -264 -10z m150 -39 c-3 -5 3 -10 14 -10 13 0 21 -6 21 -17
0 -15 -2 -16 -10 -3 -5 8 -10 10 -10 4 0 -18 -27 -25 -71 -18 -31 5 -39 11
-38 28 0 20 1 21 9 1 5 -11 9 -14 9 -7 1 6 12 12 25 12 14 0 28 5 31 10 3 6
11 10 16 10 6 0 7 -4 4 -10z"/>
<path d="M2298 2383 c7 -3 16 -2 19 1 4 3 -2 6 -13 5 -11 0 -14 -3 -6 -6z"/>
<path d="M1101 1333 c1 -27 3 -40 6 -30 5 21 22 22 29 2 10 -26 19 -16 21 22
2 38 -9 53 -39 53 -15 0 -18 -8 -17 -47z m39 11 c0 -9 -5 -14 -12 -12 -18 6
-21 28 -4 28 9 0 16 -7 16 -16z"/>
<path d="M1530 1335 c0 -43 1 -45 28 -44 23 2 24 2 5 6 -28 5 -30 23 -3 23 11
0 20 5 20 10 0 6 -9 10 -20 10 -11 0 -20 5 -20 10 0 6 9 10 20 10 11 0 20 5
20 10 0 6 -11 10 -25 10 -23 0 -25 -4 -25 -45z"/>
<path d="M1640 1365 c0 -8 -9 -15 -20 -15 -16 0 -20 -7 -20 -30 0 -25 4 -30
25 -30 23 0 25 4 25 45 0 25 -2 45 -5 45 -3 0 -5 -7 -5 -15z m0 -45 c0 -11 -7
-20 -15 -20 -15 0 -21 21 -8 33 12 13 23 7 23 -13z"/>
<path d="M1670 1370 c0 -5 5 -10 10 -10 6 0 10 5 10 10 0 6 -4 10 -10 10 -5 0
-10 -4 -10 -10z"/>
<path d="M1448 1358 c-7 -20 4 -68 16 -68 9 0 12 25 7 73 -1 11 -19 8 -23 -5z"/>
<path d="M1708 1358 c-7 -20 4 -68 16 -68 9 0 12 25 7 73 -1 11 -19 8 -23 -5z"/>
<path d="M1175 1331 c-9 -29 2 -41 33 -40 24 2 24 2 5 6 -29 6 -30 23 -2 23
27 0 20 24 -8 28 -14 2 -23 -4 -28 -17z"/>
<path d="M1244 1335 c-9 -23 3 -45 26 -45 11 0 20 4 20 10 0 5 -7 7 -15 4 -11
-4 -15 0 -15 16 0 16 4 20 15 16 8 -3 15 -1 15 4 0 16 -40 11 -46 -5z"/>
<path d="M1307 1336 c-11 -27 3 -46 32 -45 23 2 24 2 4 6 -29 6 -30 23 -2 23
26 0 20 24 -8 28 -11 2 -23 -4 -26 -12z"/>
<path d="M1381 1318 c1 -28 2 -30 7 -10 4 13 12 23 17 23 6 0 13 -10 17 -23 5
-20 6 -18 7 10 1 28 -2 32 -24 32 -22 0 -25 -4 -24 -32z"/>
<path d="M1670 1320 c0 -16 5 -30 10 -30 6 0 10 14 10 30 0 17 -4 30 -10 30
-5 0 -10 -13 -10 -30z"/>
<path d="M1754 1338 c-4 -6 1 -17 10 -24 16 -12 16 -13 -1 -17 -12 -3 -9 -5
10 -6 31 -1 38 25 10 36 -15 6 -15 7 3 14 18 7 17 8 -3 8 -12 1 -25 -4 -29
-11z"/>
<path d="M3311 273 c-1 -16 5 -23 17 -23 10 0 13 3 6 8 -6 4 -14 14 -17 22 -4
10 -6 8 -6 -7z"/>
<path d="M3420 270 c0 -12 7 -20 18 -20 14 0 15 2 2 10 -13 9 -13 11 0 20 13
8 12 10 -2 10 -11 0 -18 -8 -18 -20z"/>
<path d="M3460 270 c0 -12 7 -20 18 -20 14 0 15 2 2 10 -13 9 -13 11 0 20 13
8 12 10 -2 10 -11 0 -18 -8 -18 -20z"/>
<path d="M1153 266 c0 -7 6 -13 14 -13 7 0 13 4 13 8 0 4 -6 9 -13 12 -8 3
-14 0 -14 -7z"/>
<path d="M1241 264 c0 -11 3 -14 6 -6 3 7 2 16 -1 19 -3 4 -6 -2 -5 -13z"/>
<path d="M2217 273 c-11 -11 -8 -20 8 -20 8 0 15 6 15 14 0 14 -12 17 -23 6z"/>
<path d="M2250 267 c0 -8 7 -14 15 -14 8 0 15 6 15 14 0 7 -7 13 -15 13 -8 0
-15 -6 -15 -13z"/>
</g>
</svg>
